# This file uses centimeters as units for non-parametric coordinates.

v -0.500000 -0.386929 0.500000
v -0.166667 -0.386929 0.719336
v 0.166667 -0.386929 0.719336
v 0.926134 -0.386929 0.500000
v -0.500000 -0.128976 0.500000
v -0.166667 -0.128976 0.719336
v 0.166667 -0.128976 0.719336
v 0.926134 -0.128976 0.500000
v -0.377514 0.128976 0.429391
v -0.166667 0.128976 0.500000
v 0.166667 0.128976 0.500000
v 0.500000 0.128976 0.409852
v -0.200841 0.274382 0.169223
v -0.106956 0.274382 0.225387
v 0.133432 0.274382 0.199709
v 0.373821 0.274382 0.216811
v -0.249654 0.274382 0.098292
v -0.046839 0.346582 0.084145
v 0.200552 0.346582 0.084145
v 0.442299 0.274382 0.098292
v -0.347344 0.274382 -0.142096
v -0.046839 0.346582 -0.163247
v 0.200552 0.346582 -0.163247
v 0.340837 0.274382 -0.142096
v -0.246876 0.274382 -0.313441
v -0.106956 0.274382 -0.363379
v 0.133432 0.274382 -0.363379
v 0.340837 0.274382 -0.382485
v -0.500000 0.128976 -0.500000
v -0.166667 0.128976 -0.736230
v 0.166667 0.128976 -0.736230
v 0.719174 0.128976 -0.500000
v -0.500000 -0.128976 -0.632488
v -0.010601 -0.128976 -0.873033
v 0.322732 -0.128976 -0.740545
v 1.161603 -0.128976 -0.500000
v -0.500000 -0.386929 -0.632488
v -0.010601 -0.386929 -0.873033
v 0.322732 -0.386929 -0.740545
v 1.161603 -0.386929 -0.500000
v -0.866605 -0.386929 -0.166667
v -0.166667 -0.697214 -0.166667
v 0.321107 -0.697214 -0.346889
v 1.161603 -0.386929 -0.166667
v -0.866605 -0.386929 0.166667
v -0.166667 -0.632005 0.166667
v 0.520286 -0.661337 0.191569
v 0.926134 -0.386929 0.166667
v 1.161603 -0.128976 -0.166667
v 0.926134 -0.128976 0.166667
v 0.719174 0.128976 -0.166667
v 0.719174 0.128976 0.166667
v -0.866605 -0.128976 -0.166667
v -0.866605 -0.128976 0.166667
v -0.500000 0.128976 -0.166667
v -0.578303 0.128976 0.166667
vt 0.284644 0.845819
vt 0.315050 0.845819
vt 0.315050 0.876225
vt 0.284644 0.876225
vt 0.315050 0.906631
vt 0.284644 0.906631
vt 0.254238 0.845819
vt 0.254238 0.876225
vt 0.254238 0.906631
vt 0.301084 0.809245
vt 0.251967 0.813474
vt 0.223832 0.845819
vt 0.223832 0.876225
vt 0.282403 0.923771
vt 0.260475 0.923771
vt 0.232055 0.906631
vt 0.317173 0.875727
vt 0.317173 0.845321
vt 0.347579 0.845321
vt 0.347579 0.875727
vt 0.317173 0.814916
vt 0.347579 0.814916
vt 0.377985 0.845321
vt 0.377985 0.875727
vt 0.317173 0.918219
vt 0.347579 0.918219
vt 0.317173 0.794908
vt 0.347579 0.794908
vt 0.377985 0.821356
vt 0.395125 0.851559
vt 0.395125 0.873486
vt 0.377985 0.906133
vt 0.395125 0.889116
vt 0.288045 0.775211
vt 0.281604 0.755978
vt 0.306653 0.750532
vt 0.311776 0.759096
vt 0.281604 0.725572
vt 0.308996 0.728604
vt 0.319537 0.745048
vt 0.318247 0.763548
vt 0.312010 0.793527
vt 0.261596 0.755978
vt 0.261596 0.725572
vt 0.289827 0.695166
vt 0.307436 0.706676
vt 0.319537 0.722481
vt 0.342103 0.745048
vt 0.340174 0.772459
vt 0.281604 0.656295
vt 0.312010 0.675174
vt 0.318247 0.700430
vt 0.342103 0.722481
vt 0.360359 0.750532
vt 0.355804 0.763295
vt 0.340174 0.709685
vt 0.360359 0.728604
vt 0.394370 0.755978
vt 0.372821 0.786384
vt 0.362102 0.709685
vt 0.394370 0.725572
vt 0.342415 0.675174
vt 0.372821 0.675174
vt 0.072337 0.807863
vt 0.050395 0.763221
vt 0.114828 0.777457
vt 0.114828 0.841304
vt 0.062480 0.732815
vt 0.098389 0.732964
vt 0.145234 0.777457
vt 0.145234 0.841304
vt 0.084422 0.656295
vt 0.114828 0.656295
vt 0.147506 0.714795
vt 0.195647 0.777457
vt 0.175640 0.807863
vt 0.195647 0.747051
vt 0.145234 0.677774
vt 0.175640 0.677774
vt 0.191303 0.942368
vt 0.191303 0.911962
vt 0.221709 0.911962
vt 0.221709 0.942368
vt 0.191303 0.842685
vt 0.221709 0.842685
vt 0.158773 0.842685
vt 0.189179 0.842685
vt 0.189179 0.873091
vt 0.169946 0.873091
vt 0.198189 0.807863
vt 0.198189 0.777457
vt 0.228595 0.763221
vt 0.228595 0.807863
vt 0.198189 0.747051
vt 0.228595 0.732815
vt 0.259001 0.763221
vt 0.259001 0.807863
vt 0.198189 0.696653
vt 0.228595 0.656295
vt 0.259001 0.732815
vt 0.259001 0.656295
vn -0.459147 -0.671600 0.581496
vn -0.201640 -0.743582 0.637516
vn -0.251323 0.324766 0.911791
vn -0.601720 0.278285 0.748659
vn 0.115675 -0.688574 0.715880
vn 0.173223 0.335169 0.926097
vn 0.485282 -0.565502 0.666865
vn 0.574510 0.364567 0.732823
vn -0.145388 0.733701 0.663736
vn -0.453198 0.677371 0.579466
vn 0.106265 0.733147 0.671716
vn 0.296670 0.746219 0.595940
vn -0.057719 0.897606 0.437003
vn -0.277041 0.906531 0.318513
vn 0.044660 0.884297 0.464785
vn 0.193232 0.888429 0.416360
vn -0.113519 0.980506 0.160379
vn -0.374677 0.918268 0.128069
vn 0.138202 0.982092 0.128047
vn 0.385353 0.919750 0.074584
vn -0.109281 0.987504 -0.113546
vn -0.445833 0.894343 -0.037198
vn 0.132354 0.981652 -0.137267
vn 0.354406 0.933169 -0.059929
vn -0.097813 0.935666 -0.339061
vn -0.302162 0.918290 -0.255816
vn 0.063740 0.928706 -0.365299
vn 0.217887 0.939799 -0.263254
vn -0.232105 0.642018 -0.730712
vn -0.584555 0.652384 -0.482379
vn 0.180076 0.655467 -0.733441
vn 0.401230 0.736058 -0.545192
vn -0.124875 0.162528 -0.978770
vn -0.648255 0.213584 -0.730854
vn 0.294962 0.185383 -0.937353
vn 0.602397 0.414426 -0.682180
vn -0.177100 -0.689247 -0.702548
vn -0.464866 -0.683041 -0.563343
vn 0.209426 -0.668289 -0.713814
vn 0.440244 -0.626144 -0.643529
vn -0.193215 -0.969430 -0.151241
vn -0.622730 -0.736359 -0.264541
vn 0.149149 -0.964174 -0.219368
vn 0.586065 -0.807313 -0.069084
vn -0.167194 -0.952592 0.254195
vn -0.619748 -0.709311 0.335844
vn 0.217582 -0.946166 0.239640
vn 0.559257 -0.790494 0.249701
vn 0.801229 0.561628 0.206410
vn 0.804103 0.519724 0.288628
vn 0.486798 0.872388 0.044347
vn 0.547816 0.818244 0.174286
vn -0.858198 0.397732 -0.324506
vn -0.831922 0.422450 0.359781
vn -0.632757 0.759409 -0.151384
vn -0.597262 0.766044 0.237601
s 1
g pCube1
f 1/21/1 2/27/2 6/28/3 5/22/4
f 2/80/2 3/81/5 7/82/6 6/83/3
f 3/81/5 4/84/7 8/85/8 7/82/6
f 5/86/4 6/87/3 10/88/9 9/89/10
f 6/43/3 7/44/6 11/38/11 10/35/9
f 7/44/6 8/50/8 12/45/12 11/38/11
f 9/34/10 10/35/9 14/36/13 13/37/14
f 10/35/9 11/38/11 15/39/15 14/36/13
f 11/38/11 12/45/12 16/46/16 15/39/15
f 13/37/14 14/36/13 18/40/17 17/41/18
f 14/36/13 15/39/15 19/47/19 18/40/17
f 15/39/15 16/46/16 20/52/20 19/47/19
f 17/41/18 18/40/17 22/48/21 21/49/22
f 18/40/17 19/47/19 23/53/23 22/48/21
f 19/47/19 20/52/20 24/56/24 23/53/23
f 21/49/22 22/48/21 26/54/25 25/55/26
f 22/48/21 23/53/23 27/57/27 26/54/25
f 23/53/23 24/56/24 28/60/28 27/57/27
f 25/55/26 26/54/25 30/58/29 29/59/30
f 26/54/25 27/57/27 31/61/31 30/58/29
f 27/57/27 28/60/28 32/63/32 31/61/31
f 29/90/30 30/91/29 34/92/33 33/93/34
f 30/91/29 31/94/31 35/95/35 34/92/33
f 31/94/31 32/98/32 36/99/36 35/95/35
f 33/93/34 34/92/33 38/96/37 37/97/38
f 34/92/33 35/95/35 39/100/39 38/96/37
f 35/95/35 36/99/36 40/101/40 39/100/39
f 37/64/38 38/65/37 42/66/41 41/67/42
f 38/65/37 39/68/39 43/69/43 42/66/41
f 39/68/39 40/72/40 44/73/44 43/69/43
f 41/67/42 42/66/41 46/70/45 45/71/46
f 42/66/41 43/69/43 47/74/47 46/70/45
f 43/10/43 44/1/44 48/7/48 47/11/47
f 45/71/46 46/70/45 2/75/2 1/76/1
f 46/70/45 47/74/47 3/77/5 2/75/2
f 47/74/47 48/78/48 4/79/7 3/77/5
f 44/1/44 40/2/40 36/3/36 49/4/49
f 48/7/48 44/1/44 49/4/49 50/8/50
f 4/12/7 48/7/48 50/8/50 8/13/8
f 49/4/49 36/3/36 32/5/32 51/6/51
f 50/8/50 49/4/49 51/6/51 52/9/52
f 8/13/8 50/8/50 52/9/52 12/16/12
f 51/62/51 32/63/32 28/60/28 24/56/24
f 52/9/52 51/6/51 24/14/24 20/15/20
f 12/45/12 52/51/52 20/52/20 16/46/16
f 37/25/38 41/17/42 53/20/53 33/26/34
f 41/17/42 45/18/46 54/19/54 53/20/53
f 45/18/46 1/21/1 5/22/4 54/19/54
f 33/26/34 53/20/53 55/24/55 29/32/30
f 53/20/53 54/19/54 56/23/56 55/24/55
f 54/19/54 5/22/4 9/29/10 56/23/56
f 29/32/30 55/24/55 21/31/22 25/33/26
f 55/24/55 56/23/56 17/30/18 21/31/22
f 56/42/56 9/34/10 13/37/14 17/41/18
