# This file uses centimeters as units for non-parametric coordinates.

v -0.834835 -0.467951 -3.219183
v -0.278278 -0.363626 -3.219183
v 0.278278 -0.363626 -3.074881
v 0.970772 -0.363626 -3.251056
v -0.834835 -0.121209 -3.219183
v -0.278278 -0.121209 -3.219183
v 0.278278 -0.121209 -2.941100
v 0.970772 -0.121209 -3.251056
v -0.732010 0.067965 -3.300424
v -0.278278 0.121209 -3.158223
v 0.278278 0.121209 -3.158223
v 0.834835 0.121209 -3.239937
v -0.622318 0.227277 -3.354202
v -0.278278 0.292069 -3.224193
v 0.278278 0.292069 -3.224193
v 0.773282 0.174775 -3.382601
v -0.685694 0.267598 -3.461601
v -0.278278 0.363626 -3.327820
v 0.278278 0.363626 -3.327820
v 0.798755 0.235934 -3.461601
v -0.685694 0.265513 -3.704018
v -0.278278 0.363626 -3.704018
v 0.278278 0.463316 -3.704018
v 0.679689 0.235934 -3.704018
v -0.673093 0.225336 -3.780436
v -0.278278 0.463316 -3.862313
v 0.278278 0.463316 -3.946436
v 0.638811 0.335624 -3.855149
v -0.850628 0.111094 -3.906049
v -0.363262 0.217301 -4.155817
v 0.192951 0.217301 -4.175355
v 0.834835 0.220898 -3.899162
v -0.899451 -0.140087 -3.851987
v -0.369603 -0.121209 -4.117230
v 0.186611 -0.021520 -4.136768
v 1.049387 -0.121209 -3.855892
v -0.818590 -0.363626 -3.947513
v -0.262034 -0.363626 -4.128132
v 0.278278 -0.558408 -4.127055
v 1.049387 -0.454084 -3.946436
v -1.004509 -0.467951 -3.705096
v -0.262034 -0.558408 -3.705096
v 0.278278 -0.558408 -3.704018
v 1.049387 -0.558408 -3.704018
v -1.020753 -0.467951 -3.461601
v -0.278278 -0.558408 -3.461601
v 0.278278 -0.558408 -3.461601
v 0.970772 -0.363626 -3.461601
v 1.049387 -0.121209 -3.704018
v 0.970772 -0.121209 -3.461601
v 0.798755 0.121209 -3.704018
v 0.798755 0.121209 -3.461601
v -0.953345 -0.121209 -3.704018
v -0.953345 -0.225533 -3.461601
v -0.767427 0.121209 -3.704018
v -0.767427 0.121209 -3.461601
vt 0.428397 0.198769
vt 0.451485 0.145120
vt 0.525154 0.165158
vt 0.525154 0.198769
vt 0.547217 0.102997
vt 0.428397 0.105146
vt 0.600866 0.155582
vt 0.578804 0.198769
vt 0.471504 0.252419
vt 0.525154 0.252419
vt 0.600070 0.094457
vt 0.626256 0.165322
vt 0.604194 0.198769
vt 0.578804 0.252419
vt 0.471504 0.299015
vt 0.525154 0.299015
vt 0.654516 0.145120
vt 0.654516 0.198769
vt 0.604194 0.252419
vt 0.578804 0.301476
vt 0.471504 0.338005
vt 0.525154 0.367612
vt 0.632454 0.282026
vt 0.590659 0.269902
vt 0.578804 0.319560
vt 0.616617 0.304960
vt 0.793968 0.504431
vt 0.770880 0.450781
vt 0.847617 0.450543
vt 0.843439 0.483290
vt 0.770880 0.396893
vt 0.824529 0.396893
vt 0.901267 0.450543
vt 0.899029 0.495254
vt 0.847617 0.541991
vt 0.793968 0.544404
vt 0.770880 0.343243
vt 0.847617 0.343243
vt 0.901267 0.396893
vt 0.933203 0.450543
vt 0.924312 0.467455
vt 0.922533 0.550531
vt 0.889484 0.361223
vt 0.933665 0.396893
vt 0.954917 0.450543
vt 0.976979 0.485575
vt 0.924741 0.373125
vt 0.901267 0.329752
vt 0.939081 0.344352
vt 0.954917 0.367286
vt 0.674578 0.382293
vt 0.713851 0.352686
vt 0.713851 0.435943
vt 0.674578 0.435943
vt 0.767500 0.352686
vt 0.767500 0.435943
vt 0.713851 0.329752
vt 0.767500 0.329752
vt 0.767500 0.489593
vt 0.713851 0.470975
vt 0.759275 0.540255
vt 0.705659 0.535931
vt 0.677708 0.134430
vt 0.731357 0.094457
vt 0.731357 0.188080
vt 0.659786 0.188080
vt 0.783441 0.094696
vt 0.783441 0.188318
vt 0.729791 0.241968
vt 0.658220 0.241968
vt 0.857773 0.134669
vt 0.857773 0.188318
vt 0.783441 0.241968
vt 0.729791 0.295618
vt 0.676142 0.295618
vt 0.850195 0.241968
vt 0.783441 0.327554
vt 0.850195 0.288564
vt 0.444417 0.369810
vt 0.498067 0.392898
vt 0.498067 0.446548
vt 0.444417 0.446548
vt 0.551716 0.392898
vt 0.551716 0.446548
vt 0.498067 0.500198
vt 0.454329 0.488414
vt 0.551716 0.500198
vt 0.551716 0.538011
vt 0.498067 0.538011
vt 0.605366 0.500198
vt 0.599433 0.512053
vt 0.609357 0.369810
vt 0.662973 0.369810
vt 0.662362 0.422664
vt 0.608745 0.444726
vt 0.671198 0.541483
vt 0.619115 0.498376
vn -0.226480 -0.583650 0.779782
vn -0.101940 -0.589516 0.801299
vn -0.180656 0.018508 0.983372
vn -0.369713 0.140247 0.918501
vn 0.042596 -0.609058 0.791981
vn 0.038954 0.041221 0.998390
vn 0.361701 -0.728178 0.582176
vn 0.320506 -0.251958 0.913123
vn -0.179078 0.295195 0.938505
vn -0.505681 0.354783 0.786394
vn 0.075595 0.438233 0.895677
vn 0.503577 0.539497 0.674799
vn 0.399471 0.574245 0.714609
vn -0.140999 0.574842 0.806025
vn -0.436581 0.587547 0.681312
vn 0.123362 0.644730 0.754390
vn 0.385224 0.709844 0.589682
vn -0.138656 0.962136 0.234667
vn -0.408137 0.907773 0.096810
vn 0.110649 0.959916 0.257524
vn 0.461710 0.874306 0.149709
vn -0.155153 0.979433 0.128988
vn -0.422562 0.904720 0.054058
vn 0.111491 0.981758 0.154015
vn 0.474739 0.870663 0.128721
vn -0.200235 0.928424 -0.312945
vn -0.496403 0.834310 -0.239816
vn 0.102261 0.881694 -0.460607
vn 0.435055 0.843248 -0.315688
vn -0.241982 0.400774 -0.883643
vn -0.601741 0.344465 -0.720591
vn 0.141204 0.307577 -0.940988
vn 0.494661 0.326862 -0.805277
vn -0.213378 -0.039033 -0.976190
vn -0.643865 0.053199 -0.763287
vn 0.181330 0.006827 -0.983399
vn 0.516032 0.149474 -0.843427
vn -0.162824 -0.492082 -0.855186
vn -0.334024 -0.627031 -0.703747
vn 0.096546 -0.592605 -0.799686
vn 0.393472 -0.423581 -0.815941
vn -0.118336 -0.973361 -0.196381
vn -0.401338 -0.869498 -0.287925
vn 0.005907 -0.999738 -0.022108
vn 0.331915 -0.938000 0.099939
vn -0.053643 -0.966846 0.249662
vn -0.478609 -0.835012 0.271456
vn 0.058702 -0.938019 0.341578
vn 0.497760 -0.783735 0.371477
vn 0.931271 0.314393 0.184095
vn 0.936998 0.327232 0.122286
vn 1.000000 0.000000 0.000000
vn 0.759252 0.630179 0.162512
vn 0.822515 0.568709 -0.006201
vn -0.932916 0.353580 -0.068181
vn -0.923479 0.288451 0.252949
vn -0.850236 0.522253 0.065964
vn -0.836264 0.517744 0.180567
s 1
g pCube3
f 1/79/1 2/80/2 6/81/3 5/82/4
f 2/80/2 3/83/5 7/84/6 6/81/3
f 3/21/5 4/15/7 8/16/8 7/22/6
f 5/82/4 6/81/3 10/85/9 9/86/10
f 6/81/3 7/84/6 11/87/11 10/85/9
f 7/22/6 8/16/12 12/20/13 11/25/11
f 9/43/10 10/48/9 14/49/14 13/47/15
f 10/85/9 11/87/11 15/88/16 14/89/14
f 11/87/11 12/90/13 16/91/17 15/88/16
f 13/47/15 14/49/14 18/50/18 17/44/19
f 14/57/14 15/58/16 19/55/20 18/52/18
f 15/26/16 16/24/17 20/19/21 19/23/20
f 17/51/19 18/52/18 22/53/22 21/54/23
f 18/52/18 19/55/20 23/56/24 22/53/22
f 19/23/20 20/19/21 24/13/25 23/18/24
f 21/40/23 22/45/22 26/46/26 25/41/27
f 22/53/22 23/56/24 27/59/28 26/60/26
f 23/18/24 24/13/25 28/12/29 27/17/28
f 25/41/27 26/46/26 30/42/30 29/34/31
f 26/60/26 27/59/28 31/61/32 30/62/30
f 27/17/28 28/12/29 32/7/33 31/11/32
f 29/34/31 30/42/30 34/35/34 33/30/35
f 30/92/30 31/93/32 35/94/36 34/95/34
f 31/11/32 32/7/33 36/3/37 35/5/36
f 33/30/35 34/35/34 38/36/38 37/27/39
f 34/95/34 35/94/36 39/96/40 38/97/38
f 35/5/36 36/3/37 40/2/41 39/6/40
f 37/63/39 38/64/38 42/65/42 41/66/43
f 38/64/38 39/67/40 43/68/44 42/65/42
f 39/67/40 40/71/41 44/72/45 43/68/44
f 41/66/43 42/65/42 46/69/46 45/70/47
f 42/65/42 43/68/44 47/73/48 46/69/46
f 43/68/44 44/72/45 48/76/49 47/73/48
f 45/70/47 46/69/46 2/74/2 1/75/1
f 46/69/46 47/73/48 3/77/5 2/74/2
f 47/73/48 48/76/49 4/78/7 3/77/5
f 44/1/45 40/2/41 36/3/37 49/4/50
f 48/9/49 44/1/45 49/4/50 50/10/51
f 4/15/7 48/9/49 50/10/51 8/16/52
f 49/4/50 36/3/37 32/7/33 51/8/53
f 50/10/51 49/4/50 51/8/53 52/14/54
f 8/16/12 50/10/51 52/14/54 12/20/13
f 51/8/53 32/7/33 28/12/29 24/13/25
f 52/14/54 51/8/53 24/13/25 20/19/21
f 12/20/13 52/14/54 20/19/21 16/24/17
f 37/27/39 41/28/43 53/29/55 33/30/35
f 41/28/43 45/31/47 54/32/56 53/29/55
f 45/31/47 1/37/1 5/38/4 54/32/56
f 33/30/35 53/29/55 55/33/57 29/34/31
f 53/29/55 54/32/56 56/39/58 55/33/57
f 54/32/56 5/38/4 9/43/10 56/39/58
f 29/34/31 55/33/57 21/40/23 25/41/27
f 55/33/57 56/39/58 17/44/19 21/40/23
f 56/39/58 9/43/10 13/47/15 17/44/19
