# This file uses centimeters as units for non-parametric coordinates.

v -0.727087 9.424485 -1.430555
v -1.390437 9.536972 -0.631967
v -1.415569 9.586748 0.604755
v -0.707522 9.854416 0.987526
v 0.305976 9.887635 1.173073
v 1.056670 9.679405 0.593718
v 1.395517 9.512764 -0.565470
v 0.636222 9.499460 -1.441682
v -0.316192 10.753684 -0.878167
v -0.640324 10.753002 -0.477327
v -0.685344 10.893971 0.071763
v -0.416810 10.980358 0.440968
v 0.150161 11.003388 0.479063
v 0.653897 10.962407 0.071639
v 0.653254 10.812560 -0.476926
v 0.251416 10.729665 -0.870741
v -0.090141 10.098620 -0.058072
v -0.180412 11.656278 -0.602778
v -0.311231 11.703617 -0.480986
v -0.160905 12.688540 -0.570613
v -0.326092 11.750153 -0.299726
v -0.213744 11.743152 -0.159190
v -0.026582 11.750754 -0.146615
v 0.225203 11.768103 -0.324470
v 0.224991 11.718637 -0.505557
v 0.006751 11.663880 -0.590202
vt 0.610485 0.045765
vt 0.500000 0.000000
vt 0.389515 0.045765
vt 0.343750 0.156250
vt 0.389515 0.266735
vt 0.500000 0.312500
vt 0.610485 0.266735
vt 0.656250 0.156250
vt 0.375000 0.312500
vt 0.406250 0.312500
vt 0.437500 0.312500
vt 0.468750 0.312500
vt 0.500000 0.312500
vt 0.531250 0.312500
vt 0.562500 0.312500
vt 0.593750 0.312500
vt 0.625000 0.312500
vt 0.375000 0.688440
vt 0.406250 0.688440
vt 0.437500 0.688440
vt 0.468750 0.688440
vt 0.500000 0.688440
vt 0.531250 0.688440
vt 0.562500 0.688440
vt 0.593750 0.688440
vt 0.625000 0.688440
vt 0.610485 0.733265
vt 0.500000 0.687500
vt 0.389515 0.733265
vt 0.343750 0.843750
vt 0.389515 0.954235
vt 0.500000 1.000000
vt 0.610485 0.954235
vt 0.656250 0.843750
vt 0.500000 0.150000
vt 0.500000 0.837500
vt 0.610485 0.954235
vt 0.500000 1.000000
vt 0.389515 0.954235
vt 0.343750 0.843750
vt 0.389515 0.733265
vt 0.500000 0.687500
vt 0.610485 0.733265
vt 0.656250 0.843750
vn -0.661642 0.465171 -0.588087
vn -0.661642 0.465171 -0.588087
vn -0.672111 0.434913 -0.599265
vn -0.677834 0.417117 -0.605438
vn -0.864891 0.494400 -0.086783
vn -0.864891 0.494400 -0.086783
vn -0.882828 0.458258 -0.103021
vn -0.879415 0.465472 -0.099826
vn -0.631425 0.520118 0.575135
vn -0.631425 0.520118 0.575135
vn -0.654857 0.522081 0.546437
vn -0.654318 0.522043 0.547119
vn -0.139387 0.485886 0.862836
vn -0.139387 0.485886 0.862836
vn -0.124657 0.522422 0.843526
vn -0.125074 0.521411 0.844090
vn 0.601915 0.468145 0.646946
vn 0.601915 0.468145 0.646946
vn 0.573193 0.510229 0.641184
vn 0.577631 0.503953 0.642163
vn 0.903045 0.417384 0.101489
vn 0.903045 0.417384 0.101489
vn 0.905544 0.419565 0.062891
vn 0.906055 0.420129 0.050566
vn 0.642575 0.448241 -0.621432
vn 0.642575 0.448241 -0.621432
vn 0.622601 0.418385 -0.661303
vn 0.623163 0.419205 -0.660253
vn -0.012363 0.401972 -0.915569
vn -0.012363 0.401972 -0.915569
vn -0.002997 0.378918 -0.925425
vn -0.005332 0.384690 -0.923030
vn 0.320841 -0.929366 0.182593
vn 0.137085 -0.912794 0.384727
vn 0.008822 -0.988181 0.153035
vn 0.372366 -0.927657 0.028217
vn 0.229968 -0.968979 -0.090523
vn -0.148199 -0.981585 -0.120534
vn -0.341173 -0.939991 -0.004293
vn -0.317410 -0.936110 0.151487
vn -0.114291 -0.932119 0.343646
vn -0.710480 0.239717 -0.661629
vn -0.707309 0.210578 -0.674812
vn -0.674010 0.035728 -0.737858
vn -0.943919 0.292815 -0.152567
vn -0.946385 0.285619 -0.150921
vn -0.983354 0.139490 -0.116437
vn -0.730368 0.459125 0.505734
vn -0.724697 0.496929 0.477364
vn -0.736664 0.304050 0.604053
vn -0.077978 0.588152 0.804982
vn -0.077973 0.588743 0.804551
vn -0.077625 0.401480 0.912572
vn 0.503088 0.571575 0.648232
vn 0.504567 0.550995 0.664693
vn 0.505833 0.414497 0.756522
vn 0.905756 0.408550 -0.112661
vn 0.904218 0.411706 -0.113521
vn 0.926787 0.362035 -0.099980
vn 0.492348 0.245898 -0.834941
vn 0.506329 0.263293 -0.821162
vn 0.344363 0.074238 -0.935897
vn 0.038526 0.241762 -0.969570
vn 0.038610 0.241147 -0.969720
vn 0.065804 0.029835 -0.997387
g pCylinder17
f 1/9/1 2/10/2 10/19/3 9/18/4
f 2/10/5 3/11/6 11/20/7 10/19/8
f 3/11/9 4/12/10 12/21/11 11/20/12
f 4/12/13 5/13/14 13/22/15 12/21/16
f 5/13/17 6/14/18 14/23/19 13/22/20
f 6/14/21 7/15/22 15/24/23 14/23/24
f 7/15/25 8/16/26 16/25/27 15/24/28
f 8/16/29 1/17/30 9/26/31 16/25/32
f 2/2/33 1/1/34 17/35/35
f 3/3/36 2/2/33 17/35/35
f 4/4/37 3/3/36 17/35/35
f 5/5/38 4/4/37 17/35/35
f 6/6/39 5/5/38 17/35/35
f 7/7/40 6/6/39 17/35/35
f 8/8/41 7/7/40 17/35/35
f 1/1/34 8/8/41 17/35/35
f 18/37/42 19/38/43 20/36/44
f 19/38/45 21/39/46 20/36/47
f 21/39/48 22/40/49 20/36/50
f 22/40/51 23/41/52 20/36/53
f 23/41/54 24/42/55 20/36/56
f 24/42/57 25/43/58 20/36/59
f 25/43/60 26/44/61 20/36/62
f 26/44/63 18/37/64 20/36/65
f 9/33/4 10/32/3 19/38/43 18/37/42
f 10/32/8 11/31/7 21/39/46 19/38/45
f 11/31/12 12/30/11 22/40/49 21/39/48
f 12/30/16 13/29/15 23/41/52 22/40/51
f 13/29/20 14/28/19 24/42/55 23/41/54
f 14/28/24 15/27/23 25/43/58 24/42/57
f 15/27/28 16/34/27 26/44/61 25/43/60
f 16/34/32 9/33/31 18/37/64 26/44/63
v 1.591133 7.666949 -0.992970
v 0.539350 7.513594 -1.981468
v -0.984604 7.742232 -1.921238
v -1.726207 7.759944 -1.089361
v -1.924035 8.048704 0.534954
v -1.138165 7.855042 1.591878
v 0.572863 7.832579 1.727770
v 1.609161 7.819243 0.642775
v 0.763854 9.288659 -0.582770
v 0.219972 9.226323 -1.001930
v -0.528550 9.349328 -1.046488
v -1.021549 9.425968 -0.677219
v -1.057122 9.464318 0.080723
v -0.494156 9.472140 0.740452
v 0.253236 9.335621 0.724249
v 0.774443 9.264709 0.176039
v -0.247450 8.254157 -0.238082
v 0.487731 10.624864 -0.521157
v 0.217903 10.699798 -0.790976
v -0.170590 10.763640 -0.814102
v -0.458075 10.721152 -0.570416
v -0.476538 10.741056 -0.177033
v -0.094819 10.825735 0.341464
v 0.293089 10.754880 0.333054
v 0.469268 10.644768 -0.127774
vt 0.610485 0.045765
vt 0.500000 0.000000
vt 0.389515 0.045765
vt 0.343750 0.156250
vt 0.389515 0.266735
vt 0.500000 0.312500
vt 0.610485 0.266735
vt 0.656250 0.156250
vt 0.375000 0.312500
vt 0.406250 0.312500
vt 0.437500 0.312500
vt 0.468750 0.312500
vt 0.500000 0.312500
vt 0.531250 0.312500
vt 0.562500 0.312500
vt 0.593750 0.312500
vt 0.625000 0.312500
vt 0.375000 0.688440
vt 0.406250 0.688440
vt 0.437500 0.688440
vt 0.468750 0.688440
vt 0.500000 0.688440
vt 0.531250 0.688440
vt 0.562500 0.688440
vt 0.593750 0.688440
vt 0.625000 0.688440
vt 0.610485 0.733265
vt 0.500000 0.687500
vt 0.389515 0.733265
vt 0.343750 0.843750
vt 0.389515 0.954235
vt 0.500000 1.000000
vt 0.610485 0.954235
vt 0.656250 0.843750
vt 0.500000 0.150000
vt 0.610485 0.954235
vt 0.500000 1.000000
vt 0.389515 0.954235
vt 0.343750 0.843750
vt 0.389515 0.733265
vt 0.500000 0.687500
vt 0.610485 0.733265
vt 0.656250 0.843750
vn 0.545045 0.475291 -0.690669
vn 0.545045 0.475291 -0.690669
vn 0.570349 0.411351 -0.710980
vn 0.582707 0.376205 -0.720363
vn 0.068928 0.484315 -0.872174
vn 0.068928 0.484315 -0.872174
vn 0.073648 0.391442 -0.917251
vn 0.072805 0.409553 -0.909377
vn -0.597651 0.467913 -0.651053
vn -0.597651 0.467913 -0.651053
vn -0.595814 0.417919 -0.685821
vn -0.595904 0.419503 -0.684774
vn -0.881865 0.447713 -0.147876
vn -0.881865 0.447713 -0.147876
vn -0.890660 0.436695 -0.126575
vn -0.890789 0.436527 -0.126252
vn -0.626783 0.549926 0.552019
vn -0.626783 0.549926 0.552019
vn -0.665318 0.500831 0.553643
vn -0.660842 0.506810 0.553563
vn -0.008738 0.511671 0.859137
vn -0.008738 0.511671 0.859137
vn 0.008354 0.460306 0.887721
vn 0.012947 0.446193 0.894843
vn 0.627123 0.530101 0.570710
vn 0.627123 0.530101 0.570710
vn 0.694617 0.442428 0.567244
vn 0.692697 0.445163 0.567451
vn 0.878927 0.475597 -0.035995
vn 0.878927 0.475597 -0.035995
vn 0.915017 0.402717 -0.023732
vn 0.906574 0.421193 -0.026813
vn -0.146746 -0.932540 0.329901
vn -0.219512 -0.953399 0.206988
vn -0.053089 -0.996260 0.068174
vn 0.005160 -0.957342 0.288911
vn 0.205870 -0.958200 0.198669
vn 0.114679 -0.993285 -0.015269
vn 0.013275 -0.978272 -0.206900
vn -0.073383 -0.980972 -0.179749
vn -0.215371 -0.976131 -0.028011
vn 0.641353 0.136740 -0.754962
vn 0.641353 0.136740 -0.754962
vn 0.081958 0.141358 -0.986560
vn 0.081958 0.141358 -0.986560
vn -0.582571 0.293024 -0.758122
vn -0.582571 0.293024 -0.758122
vn -0.913227 0.402516 -0.063227
vn -0.913227 0.402516 -0.063227
vn -0.727465 0.408636 0.551190
vn -0.727465 0.408636 0.551190
vn 0.068954 0.263291 0.962249
vn 0.068954 0.263291 0.962249
vn 0.821562 0.209512 0.530227
vn 0.821562 0.209512 0.530227
vn 0.977696 0.209895 0.007419
vn 0.977696 0.209895 0.007419
g pCylinder18
f 27/53/66 28/54/67 36/63/68 35/62/69
f 28/54/70 29/55/71 37/64/72 36/63/73
f 29/55/74 30/56/75 38/65/76 37/64/77
f 30/56/78 31/57/79 39/66/80 38/65/81
f 31/57/82 32/58/83 40/67/84 39/66/85
f 32/58/86 33/59/87 41/68/88 40/67/89
f 33/59/90 34/60/91 42/69/92 41/68/93
f 34/60/94 27/61/95 35/70/96 42/69/97
f 28/46/98 27/45/99 43/79/100
f 29/47/101 28/46/98 43/79/100
f 30/48/102 29/47/101 43/79/100
f 31/49/103 30/48/102 43/79/100
f 32/50/104 31/49/103 43/79/100
f 33/51/105 32/50/104 43/79/100
f 34/52/106 33/51/105 43/79/100
f 27/45/99 34/52/106 43/79/100
f 35/77/69 36/76/68 45/81/107 44/80/108
f 36/76/73 37/75/72 46/82/109 45/81/110
f 37/75/77 38/74/76 47/83/111 46/82/112
f 38/74/81 39/73/80 48/84/113 47/83/114
f 39/73/85 40/72/84 49/85/115 48/84/116
f 40/72/89 41/71/88 50/86/117 49/85/118
f 41/71/93 42/78/92 51/87/119 50/86/120
f 42/78/97 35/77/96 44/80/121 51/87/122
v 0.111066 5.359285 -3.099173
v -1.988756 5.643720 -2.679192
v -2.909225 5.468161 -1.476186
v -2.757697 5.662981 1.411432
v -0.847640 5.936365 3.006181
v 1.504969 5.757005 2.543097
v 2.798206 5.704741 0.567617
v 2.152792 5.117889 -1.861622
v 0.149314 7.523692 -1.572823
v -0.772688 7.471894 -1.216281
v -1.373716 7.651143 -0.323027
v -1.279954 7.732618 0.559937
v -0.372268 7.728357 1.165922
v 0.855961 7.685612 0.961517
v 1.380592 7.492167 0.024139
v 1.088173 7.432204 -1.025637
v -0.201017 6.312746 -0.121060
v 0.092270 9.085245 -0.966301
v -0.346869 9.190909 -0.853194
v -0.607037 9.268500 -0.466529
v -0.537131 9.204899 -0.022692
v -0.144219 9.203054 0.239622
v 0.627641 9.266684 0.170736
v 0.854739 9.182947 -0.235030
v 0.485182 9.083400 -0.703987
vt 0.610485 0.045765
vt 0.500000 0.000000
vt 0.389515 0.045765
vt 0.343750 0.156250
vt 0.389515 0.266735
vt 0.500000 0.312500
vt 0.610485 0.266735
vt 0.656250 0.156250
vt 0.375000 0.312500
vt 0.406250 0.312500
vt 0.437500 0.312500
vt 0.468750 0.312500
vt 0.500000 0.312500
vt 0.531250 0.312500
vt 0.562500 0.312500
vt 0.593750 0.312500
vt 0.625000 0.312500
vt 0.375000 0.688440
vt 0.406250 0.688440
vt 0.437500 0.688440
vt 0.468750 0.688440
vt 0.500000 0.688440
vt 0.531250 0.688440
vt 0.562500 0.688440
vt 0.593750 0.688440
vt 0.625000 0.688440
vt 0.610485 0.733265
vt 0.500000 0.687500
vt 0.389515 0.733265
vt 0.343750 0.843750
vt 0.389515 0.954235
vt 0.500000 1.000000
vt 0.610485 0.954235
vt 0.656250 0.843750
vt 0.500000 0.150000
vt 0.610485 0.954235
vt 0.500000 1.000000
vt 0.389515 0.954235
vt 0.343750 0.843750
vt 0.389515 0.733265
vt 0.500000 0.687500
vt 0.610485 0.733265
vt 0.656250 0.843750
vn -0.149547 0.622273 -0.768383
vn -0.149547 0.622273 -0.768383
vn -0.176822 0.573894 -0.799612
vn -0.191818 0.545716 -0.815721
vn -0.589565 0.684302 -0.429120
vn -0.589565 0.684302 -0.429120
vn -0.654787 0.581418 -0.482916
vn -0.638404 0.610078 -0.469303
vn -0.816249 0.577600 0.010775
vn -0.816249 0.577600 0.010775
vn -0.829736 0.557507 0.026909
vn -0.828598 0.559262 0.025516
vn -0.505028 0.650693 0.567049
vn -0.505028 0.650693 0.567049
vn -0.500069 0.626365 0.597995
vn -0.500062 0.626331 0.598036
vn 0.175906 0.670817 0.720460
vn 0.175906 0.670817 0.720460
vn 0.159792 0.624365 0.764614
vn 0.162269 0.631550 0.758165
vn 0.696423 0.606592 0.383459
vn 0.696423 0.606592 0.383459
vn 0.734085 0.554536 0.391929
vn 0.741897 0.542863 0.393559
vn 0.803130 0.508204 -0.310983
vn 0.803130 0.508204 -0.310984
vn 0.820969 0.462489 -0.334835
vn 0.819848 0.465602 -0.333265
vn 0.487005 0.492176 -0.721519
vn 0.487005 0.492176 -0.721519
vn 0.492850 0.457057 -0.740404
vn 0.491524 0.465533 -0.735992
vn 0.085623 -0.976927 0.195658
vn -0.177266 -0.942541 0.283184
vn -0.027155 -0.996041 0.084652
vn 0.271643 -0.960772 0.055927
vn 0.240547 -0.970584 -0.010212
vn 0.050264 -0.992760 -0.109091
vn -0.138601 -0.983484 -0.116402
vn -0.221081 -0.969368 0.107004
vn -0.262654 -0.923701 0.278906
vn -0.300344 0.301248 -0.905010
vn -0.300344 0.301248 -0.905010
vn -0.759178 0.309049 -0.572832
vn -0.759178 0.309049 -0.572832
vn -0.883977 0.456067 0.102900
vn -0.883977 0.456067 0.102900
vn -0.472580 0.520007 0.711520
vn -0.472580 0.520007 0.711520
vn 0.113271 0.486728 0.866178
vn 0.113271 0.486728 0.866178
vn 0.851678 0.327585 0.409064
vn 0.851678 0.327585 0.409064
vn 0.862844 0.299068 -0.407502
vn 0.862844 0.299068 -0.407502
vn 0.506599 0.333745 -0.794966
vn 0.506599 0.333745 -0.794966
g pCylinder19
f 52/96/123 53/97/124 61/106/125 60/105/126
f 53/97/127 54/98/128 62/107/129 61/106/130
f 54/98/131 55/99/132 63/108/133 62/107/134
f 55/99/135 56/100/136 64/109/137 63/108/138
f 56/100/139 57/101/140 65/110/141 64/109/142
f 57/101/143 58/102/144 66/111/145 65/110/146
f 58/102/147 59/103/148 67/112/149 66/111/150
f 59/103/151 52/104/152 60/113/153 67/112/154
f 53/89/155 52/88/156 68/122/157
f 54/90/158 53/89/155 68/122/157
f 55/91/159 54/90/158 68/122/157
f 56/92/160 55/91/159 68/122/157
f 57/93/161 56/92/160 68/122/157
f 58/94/162 57/93/161 68/122/157
f 59/95/163 58/94/162 68/122/157
f 52/88/156 59/95/163 68/122/157
f 60/120/126 61/119/125 70/124/164 69/123/165
f 61/119/130 62/118/129 71/125/166 70/124/167
f 62/118/134 63/117/133 72/126/168 71/125/169
f 63/117/138 64/116/137 73/127/170 72/126/171
f 64/116/142 65/115/141 74/128/172 73/127/173
f 65/115/146 66/114/145 75/129/174 74/128/175
f 66/114/150 67/121/149 76/130/176 75/129/177
f 67/121/154 60/120/153 69/123/178 76/130/179
v 1.832091 3.929388 -2.406729
v -0.236877 3.778494 -3.246483
v -2.536466 4.127568 -2.293961
v -3.488986 3.823112 0.005627
v -2.536466 3.583722 2.305216
v -0.236877 3.592737 3.257737
v 2.005636 3.903499 2.305216
v 2.899944 3.884116 -0.175417
v 0.868332 6.041060 -1.128934
v -0.236877 5.795095 -1.383312
v -1.403567 5.911023 -0.905807
v -1.886822 5.931713 0.005627
v -1.403567 5.931713 1.172316
v -0.091320 6.021190 1.766160
v 1.031960 5.878524 1.196446
v 1.428935 5.899334 -0.002275
v -0.236877 4.110000 0.005627
v 0.164904 8.131553 -0.396153
v -0.236877 8.228248 -0.531464
v -0.638657 8.268171 -0.367022
v -0.805079 8.131553 0.005627
v -0.638657 8.131553 0.407408
v -0.021049 8.296241 0.752837
v 0.365783 8.247110 0.556641
v 0.331326 8.131553 0.005627
vt 0.610485 0.045765
vt 0.500000 0.000000
vt 0.389515 0.045765
vt 0.343750 0.156250
vt 0.389515 0.266735
vt 0.500000 0.312500
vt 0.610485 0.266735
vt 0.656250 0.156250
vt 0.375000 0.312500
vt 0.406250 0.312500
vt 0.437500 0.312500
vt 0.468750 0.312500
vt 0.500000 0.312500
vt 0.531250 0.312500
vt 0.562500 0.312500
vt 0.593750 0.312500
vt 0.625000 0.312500
vt 0.375000 0.688440
vt 0.406250 0.688440
vt 0.437500 0.688440
vt 0.468750 0.688440
vt 0.500000 0.688440
vt 0.531250 0.688440
vt 0.562500 0.688440
vt 0.593750 0.688440
vt 0.625000 0.688440
vt 0.610485 0.733265
vt 0.500000 0.687500
vt 0.389515 0.733265
vt 0.343750 0.843750
vt 0.389515 0.954235
vt 0.500000 1.000000
vt 0.610485 0.954235
vt 0.656250 0.843750
vt 0.500000 0.150000
vt 0.610485 0.954235
vt 0.500000 1.000000
vt 0.389515 0.954235
vt 0.343750 0.843750
vt 0.389515 0.733265
vt 0.500000 0.687500
vt 0.610485 0.733265
vt 0.656250 0.843750
vn 0.184523 0.622032 -0.760939
vn 0.184523 0.622032 -0.760939
vn 0.189798 0.567970 -0.800866
vn 0.191890 0.542819 -0.817634
vn -0.204133 0.670851 -0.712944
vn -0.204133 0.670851 -0.712944
vn -0.246294 0.576816 -0.778860
vn -0.239386 0.593414 -0.768475
vn -0.737611 0.616541 -0.275330
vn -0.737611 0.616541 -0.275330
vn -0.767274 0.564074 -0.305142
vn -0.767939 0.562792 -0.305835
vn -0.755581 0.552977 0.351161
vn -0.755581 0.552977 0.351161
vn -0.778985 0.519357 0.351355
vn -0.778834 0.519583 0.351356
vn -0.347851 0.521285 0.779270
vn -0.347851 0.521285 0.779270
vn -0.378240 0.485432 0.788220
vn -0.374032 0.490524 0.787074
vn 0.328730 0.525296 0.784857
vn 0.328730 0.525296 0.784857
vn 0.362245 0.484423 0.796312
vn 0.368292 0.476753 0.798165
vn 0.788990 0.548364 0.277112
vn 0.788990 0.548364 0.277112
vn 0.829126 0.501221 0.247645
vn 0.826934 0.503982 0.249363
vn 0.755294 0.563353 -0.334910
vn 0.755294 0.563353 -0.334910
vn 0.781549 0.520864 -0.343340
vn 0.776047 0.530156 -0.341593
vn -0.042030 -0.993966 0.101321
vn -0.019423 -0.998124 0.058071
vn 0.009811 -0.998867 -0.046559
vn -0.010736 -0.999938 0.003098
vn 0.087268 -0.989257 -0.117278
vn 0.077810 -0.985947 -0.147831
vn 0.069351 -0.985208 -0.156702
vn 0.000436 -0.995954 -0.089860
vn -0.071981 -0.997402 -0.002736
vn 0.201574 0.351587 -0.914196
vn 0.201574 0.351587 -0.914196
vn -0.333253 0.311547 -0.889877
vn -0.333253 0.311547 -0.889877
vn -0.837003 0.385141 -0.388706
vn -0.837003 0.385141 -0.388706
vn -0.841146 0.413622 0.348411
vn -0.841146 0.413622 0.348411
vn -0.443035 0.401263 0.801691
vn -0.443035 0.401263 0.801691
vn 0.458725 0.349676 0.816883
vn 0.458725 0.349676 0.816883
vn 0.912360 0.372955 0.168832
vn 0.912360 0.372955 0.168832
vn 0.837555 0.410702 -0.360313
vn 0.837555 0.410702 -0.360313
g pCylinder20
f 77/139/180 78/140/181 86/149/182 85/148/183
f 78/140/184 79/141/185 87/150/186 86/149/187
f 79/141/188 80/142/189 88/151/190 87/150/191
f 80/142/192 81/143/193 89/152/194 88/151/195
f 81/143/196 82/144/197 90/153/198 89/152/199
f 82/144/200 83/145/201 91/154/202 90/153/203
f 83/145/204 84/146/205 92/155/206 91/154/207
f 84/146/208 77/147/209 85/156/210 92/155/211
f 78/132/212 77/131/213 93/165/214
f 79/133/215 78/132/212 93/165/214
f 80/134/216 79/133/215 93/165/214
f 81/135/217 80/134/216 93/165/214
f 82/136/218 81/135/217 93/165/214
f 83/137/219 82/136/218 93/165/214
f 84/138/220 83/137/219 93/165/214
f 77/131/213 84/138/220 93/165/214
f 85/163/183 86/162/182 95/167/221 94/166/222
f 86/162/187 87/161/186 96/168/223 95/167/224
f 87/161/191 88/160/190 97/169/225 96/168/226
f 88/160/195 89/159/194 98/170/227 97/169/228
f 89/159/199 90/158/198 99/171/229 98/170/230
f 90/158/203 91/157/202 100/172/231 99/171/232
f 91/157/207 92/164/206 101/173/233 100/172/234
f 92/164/211 85/163/210 94/166/235 101/173/236
v -0.013066 -0.018544 -0.939650
v -1.124306 -0.018544 -0.578586
v -1.124306 -0.018544 0.589840
v -0.013066 -0.018544 0.950904
v 0.673717 -0.018544 0.005627
v -0.044409 5.646590 -0.457347
v -0.570401 5.720725 -0.258458
v -0.545639 5.717235 0.308194
v -0.004343 5.640943 0.459517
v 0.305434 5.597282 -0.013614
v -0.058914 4.188736 -0.582369
v 0.279079 4.158687 -0.095797
v 0.136833 4.177029 0.533248
v -0.620065 4.218413 0.363407
v -0.741044 4.225649 -0.182001
v -0.116124 2.170289 -0.646026
v 0.379102 2.156779 -0.026741
v -0.056821 2.159841 0.635759
v -0.821463 2.175244 0.425922
v -0.858114 2.181701 -0.257948
v 0.051388 1.059640 -0.691857
v 0.480727 1.077786 0.093166
v -0.132536 1.051867 0.744442
v -0.940892 1.017703 0.361928
v -0.827221 1.022507 -0.525753
vt 0.375000 0.312500
vt 0.425000 0.312500
vt 0.475000 0.312500
vt 0.525000 0.312500
vt 0.575000 0.312500
vt 0.625000 0.312500
vt 0.375000 0.688440
vt 0.425000 0.688440
vt 0.475000 0.688440
vt 0.525000 0.688440
vt 0.575000 0.688440
vt 0.625000 0.688440
vt 0.625000 0.591535
vt 0.375000 0.591535
vt 0.575000 0.591535
vt 0.525000 0.591535
vt 0.475000 0.591535
vt 0.425000 0.591535
vt 0.625000 0.457280
vt 0.375000 0.457280
vt 0.575000 0.457280
vt 0.525000 0.457280
vt 0.475000 0.457280
vt 0.425000 0.457280
vt 0.625000 0.383162
vt 0.375000 0.383162
vt 0.575000 0.383162
vt 0.525000 0.383162
vt 0.475000 0.383162
vt 0.425000 0.383162
vn -0.255097 0.178329 -0.950329
vn -0.255097 0.178329 -0.950329
vn -0.282914 0.147698 -0.947705
vn -0.282098 0.148607 -0.947806
vn -0.973867 0.220771 -0.053324
vn -0.973867 0.220771 -0.053324
vn -0.986946 0.152542 -0.051660
vn -0.984911 0.165069 -0.051982
vn -0.357061 0.199015 0.912634
vn -0.357061 0.199015 0.912634
vn -0.356207 0.138580 0.924073
vn -0.356338 0.143963 0.923200
vn 0.766106 0.144846 0.626180
vn 0.766106 0.144846 0.626180
vn 0.771433 0.117531 0.625362
vn 0.771004 0.119853 0.625450
vn 0.832333 0.132207 -0.538278
vn 0.832333 0.132207 -0.538278
vn 0.832511 0.113784 -0.542197
vn 0.832510 0.114527 -0.542043
vn 0.801158 0.016409 -0.598228
vn 0.800843 0.015232 -0.598681
vn 0.804962 0.031031 -0.592515
vn 0.804962 0.031031 -0.592515
vn 0.917211 0.009398 0.398291
vn 0.917518 0.010325 0.397561
vn 0.925330 0.035506 0.377498
vn 0.925330 0.035506 0.377498
vn -0.238600 0.054248 0.969602
vn -0.238510 0.053346 0.969674
vn -0.236834 0.036918 0.970849
vn -0.236834 0.036918 0.970848
vn -0.988415 0.080493 0.128674
vn -0.988424 0.080418 0.128654
vn -0.987690 0.086578 0.130277
vn -0.987690 0.086578 0.130277
vn -0.467602 0.047756 -0.882648
vn -0.469971 0.048233 -0.881363
vn -0.440832 0.042386 -0.896588
vn -0.440832 0.042386 -0.896588
vn 0.816338 0.045457 -0.575783
vn 0.812751 0.037392 -0.581410
vn 0.853198 0.035555 0.520375
vn 0.869830 0.025552 0.492689
vn -0.293109 0.056250 0.954423
vn -0.276268 0.058296 0.959311
vn -0.997562 0.060290 0.035142
vn -0.996287 0.064251 0.057315
vn -0.415596 0.072981 -0.906617
vn -0.431670 0.067747 -0.899484
g pCylinder21
f 102/174/237 103/175/238 126/203/239 122/199/240
f 103/175/241 104/176/242 125/202/243 126/203/244
f 104/176/245 105/177/246 124/201/247 125/202/248
f 105/177/249 106/178/250 123/200/251 124/201/252
f 106/178/253 102/179/254 122/198/255 123/200/256
f 113/188/257 112/186/258 107/185/259 111/184/260
f 114/189/261 113/188/262 111/184/263 110/183/264
f 115/190/265 114/189/266 110/183/267 109/182/268
f 116/191/269 115/190/270 109/182/271 108/181/272
f 112/187/273 116/191/274 108/181/275 107/180/276
f 118/194/277 117/192/278 112/186/258 113/188/257
f 119/195/279 118/194/280 113/188/262 114/189/261
f 120/196/281 119/195/282 114/189/266 115/190/265
f 121/197/283 120/196/284 115/190/270 116/191/269
f 117/193/285 121/197/286 116/191/274 112/187/273
f 123/200/256 122/198/255 117/192/278 118/194/277
f 124/201/252 123/200/251 118/194/280 119/195/279
f 125/202/248 124/201/247 119/195/282 120/196/281
f 126/203/244 125/202/243 120/196/284 121/197/283
f 122/199/240 126/203/239 121/197/286 117/193/285
