# This file uses centimeters as units for non-parametric coordinates.

mtllib Telescope-Coll_Legs.mtl
v -0.731545 0.002697 -1.626510
v -0.911263 0.002697 -1.937792
v 0.075860 5.625234 -0.052058
v -0.003501 5.717216 -0.189516
v -0.083014 5.625234 0.039668
v -0.162375 5.717216 -0.097790
v -1.042827 0.002697 -1.446791
v -1.222545 0.002697 -1.758073
v -1.042827 0.002697 1.446791
v -1.222545 0.002697 1.758073
v -0.083014 5.625234 -0.039668
v -0.162375 5.717216 0.097790
v 0.075860 5.625234 0.052058
v -0.003501 5.717216 0.189516
v -0.731545 0.002697 1.626510
v -0.911263 0.002697 1.937792
v 1.774371 0.002697 0.179719
v 2.133809 0.002697 0.179719
v 0.007153 5.625234 0.091726
v 0.165876 5.717216 0.091726
v 0.007153 5.625234 -0.091726
v 0.165876 5.717216 -0.091726
v 1.774371 0.002697 -0.179719
v 2.133809 0.002697 -0.179719
vt 0.375000 0.000000
vt 0.625000 0.000000
vt 0.375000 0.250000
vt 0.625000 0.250000
vt 0.375000 0.500000
vt 0.625000 0.500000
vt 0.375000 0.750000
vt 0.625000 0.750000
vt 0.375000 1.000000
vt 0.625000 1.000000
vt 0.875000 0.000000
vt 0.875000 0.250000
vt 0.125000 0.000000
vt 0.125000 0.250000
vt 0.375000 0.000000
vt 0.625000 0.000000
vt 0.625000 0.250000
vt 0.375000 0.250000
vt 0.625000 0.500000
vt 0.375000 0.500000
vt 0.625000 0.750000
vt 0.375000 0.750000
vt 0.625000 1.000000
vt 0.375000 1.000000
vt 0.875000 0.000000
vt 0.875000 0.250000
vt 0.125000 0.000000
vt 0.125000 0.250000
vt 0.375000 0.000000
vt 0.625000 0.000000
vt 0.625000 0.250000
vt 0.375000 0.250000
vt 0.625000 0.500000
vt 0.375000 0.500000
vt 0.625000 0.750000
vt 0.375000 0.750000
vt 0.625000 1.000000
vt 0.375000 1.000000
vt 0.875000 0.000000
vt 0.875000 0.250000
vt 0.125000 0.000000
vt 0.125000 0.250000
vn 0.867231 0.014664 -0.497690
vn 0.867231 0.014664 -0.497690
vn 0.867231 0.014664 -0.497690
vn 0.867231 0.014664 -0.497690
vn 0.250701 0.865213 0.434229
vn 0.250701 0.865213 0.434229
vn 0.250701 0.865213 0.434229
vn 0.250701 0.865213 0.434229
vn -0.864628 0.014664 0.502199
vn -0.864628 0.014664 0.502199
vn -0.864628 0.014664 0.502199
vn -0.864628 0.014664 0.502199
vn 0.000000 -1.000000 0.000000
vn 0.000000 -1.000000 0.000000
vn 0.000000 -1.000000 0.000000
vn 0.000000 -1.000000 0.000000
vn -0.472753 0.325607 -0.818831
vn -0.472753 0.325607 -0.818831
vn -0.472753 0.325607 -0.818831
vn -0.472753 0.325607 -0.818831
vn 0.476994 -0.299847 0.826177
vn 0.476994 -0.299847 0.826177
vn 0.476994 -0.299847 0.826177
vn 0.476994 -0.299847 0.826177
vn -0.864628 0.014664 -0.502199
vn -0.864628 0.014664 -0.502199
vn -0.864628 0.014664 -0.502199
vn -0.864628 0.014664 -0.502199
vn 0.250701 0.865214 -0.434227
vn 0.250701 0.865214 -0.434227
vn 0.250701 0.865214 -0.434227
vn 0.250701 0.865214 -0.434227
vn 0.867231 0.014664 0.497690
vn 0.867231 0.014664 0.497690
vn 0.867231 0.014664 0.497690
vn 0.867231 0.014664 0.497690
vn 0.000000 -1.000000 -0.000000
vn 0.000000 -1.000000 -0.000000
vn 0.000000 -1.000000 -0.000000
vn 0.000000 -1.000000 -0.000000
vn -0.472753 0.325607 0.818831
vn -0.472753 0.325607 0.818831
vn -0.472753 0.325607 0.818831
vn -0.472753 0.325607 0.818831
vn 0.476994 -0.299847 -0.826177
vn 0.476994 -0.299847 -0.826177
vn 0.476994 -0.299847 -0.826177
vn 0.476994 -0.299847 -0.826177
vn -0.002603 0.014664 0.999889
vn -0.002603 0.014664 0.999889
vn -0.002603 0.014664 0.999889
vn -0.002603 0.014664 0.999889
vn -0.501403 0.865214 0.000000
vn -0.501403 0.865214 0.000000
vn -0.501403 0.865214 0.000000
vn -0.501403 0.865214 0.000000
vn -0.002603 0.014664 -0.999889
vn -0.002603 0.014664 -0.999889
vn -0.002603 0.014664 -0.999889
vn -0.002603 0.014664 -0.999889
vn 0.000000 -1.000000 0.000000
vn 0.000000 -1.000000 0.000000
vn 0.000000 -1.000000 0.000000
vn 0.000000 -1.000000 0.000000
vn 0.945505 0.325607 0.000000
vn 0.945505 0.325607 0.000000
vn 0.945505 0.325607 0.000000
vn 0.945505 0.325607 0.000000
vn -0.953987 -0.299847 0.000000
vn -0.953987 -0.299847 0.000000
vn -0.953987 -0.299847 0.000000
vn -0.953987 -0.299847 0.000000
usemtl initialShadingGroup
f 1/1/1 2/2/2 4/4/3 3/3/4
f 3/3/5 4/4/6 6/6/7 5/5/8
f 5/5/9 6/6/10 8/8/11 7/7/12
f 7/7/13 8/8/14 2/10/15 1/9/16
f 2/2/17 8/11/18 6/12/19 4/4/20
f 7/13/21 1/1/22 3/3/23 5/14/24
f 9/15/25 10/16/26 12/17/27 11/18/28
f 11/18/29 12/17/30 14/19/31 13/20/32
f 13/20/33 14/19/34 16/21/35 15/22/36
f 15/22/37 16/21/38 10/23/39 9/24/40
f 10/16/41 16/25/42 14/26/43 12/17/44
f 15/27/45 9/15/46 11/18/47 13/28/48
f 17/29/49 18/30/50 20/31/51 19/32/52
f 19/32/53 20/31/54 22/33/55 21/34/56
f 21/34/57 22/33/58 24/35/59 23/36/60
f 23/36/61 24/35/62 18/37/63 17/38/64
f 18/30/65 24/39/66 22/40/67 20/31/68
f 23/41/69 17/29/70 19/32/71 21/42/72
