# This file uses centimeters as units for non-parametric coordinates.

v -0.249314 -0.174873 -1.600315
v 0.000000 -0.192392 -1.600315
v 0.249314 -0.162503 -1.600315
v -0.249314 0.000000 -1.600315
v 0.000000 0.000000 -1.551359
v 0.201651 0.000000 -1.600315
v -0.244369 0.045262 -1.654861
v 0.000000 0.122740 -1.656822
v 0.216037 0.170651 -1.676478
v -0.249314 0.167911 -1.849629
v 0.000000 0.249314 -1.849629
v 0.249314 0.249314 -1.849629
v -0.189671 0.167911 -2.007981
v 0.000000 0.161316 -2.098944
v 0.190591 0.197645 -1.986288
v -0.249314 0.000000 -2.098944
v 0.000000 0.000000 -2.098944
v 0.327356 0.000000 -2.098944
v -0.249314 -0.154917 -2.098944
v 0.000000 -0.134805 -2.098944
v 0.356545 -0.151788 -2.098944
v -0.249314 -0.177042 -1.849629
v 0.000000 -0.212903 -1.849629
v 0.356545 -0.143913 -1.849629
v 0.327356 0.000000 -1.849629
v -0.332773 0.000000 -1.849629
vt 0.597382 0.787874
vt 0.595820 0.738425
vt 0.625926 0.738425
vt 0.625926 0.787874
vt 0.665127 0.760769
vt 0.675376 0.787874
vt 0.593694 0.837324
vt 0.625926 0.837324
vt 0.659773 0.822218
vt 0.553313 0.937293
vt 0.548925 0.887843
vt 0.584040 0.887843
vt 0.584040 0.937293
vt 0.549355 0.838393
vt 0.584040 0.838393
vt 0.617344 0.887843
vt 0.617344 0.919251
vt 0.593018 0.849212
vt 0.766272 0.759343
vt 0.809121 0.763241
vt 0.815722 0.797585
vt 0.766272 0.797585
vt 0.766272 0.738425
vt 0.806268 0.748135
vt 0.804074 0.824690
vt 0.766272 0.847034
vt 0.717803 0.758953
vt 0.716822 0.797585
vt 0.716822 0.748135
vt 0.728652 0.828992
vt 0.620499 0.737355
vt 0.620499 0.687906
vt 0.669949 0.687906
vt 0.669949 0.737355
vt 0.620499 0.617187
vt 0.669949 0.617187
vt 0.719398 0.687906
vt 0.719398 0.737355
vt 0.719398 0.638456
vt 0.680494 0.837324
vt 0.677019 0.787874
vt 0.715179 0.787874
vt 0.715179 0.837324
vt 0.682947 0.738425
vt 0.715179 0.747878
vt 0.554823 0.725526
vt 0.556131 0.687906
vt 0.588127 0.687906
vt 0.588127 0.737355
vt 0.548925 0.650103
vt 0.588127 0.622977
vt 0.614864 0.687906
vt 0.618853 0.737355
vt 0.618233 0.617187
vn -0.493905 -0.700461 0.515182
vn 0.032365 -0.862821 0.504473
vn -0.016075 0.185025 0.982602
vn -0.634055 0.095965 0.767310
vn 0.482457 -0.733879 0.478181
vn 0.547244 0.224428 0.806322
vn -0.124252 0.761701 0.635903
vn -0.489079 0.695072 0.526949
vn 0.487893 0.621141 0.613306
vn -0.149981 0.976677 0.153650
vn -0.557466 0.820716 0.125130
vn 0.568913 0.811747 0.131925
vn -0.029785 0.642323 -0.765855
vn -0.467250 0.728135 -0.501494
vn 0.407180 0.726165 -0.553976
vn 0.010199 0.173576 -0.984768
vn -0.665223 0.114007 -0.737889
vn 0.590955 0.287917 -0.753576
vn 0.023977 -0.797041 -0.603449
vn -0.446644 -0.717887 -0.533992
vn 0.398849 -0.764493 -0.506429
vn 0.035065 -0.997250 -0.065287
vn -0.532880 -0.844411 -0.054852
vn 0.580931 -0.812488 0.048816
vn 0.943926 0.290772 0.156382
vn -0.997906 0.056037 -0.032311
s 1
g pCube2
f 1/40/1 2/41/2 5/42/3 4/43/4
f 2/41/2 3/44/5 6/45/6 5/42/3
f 4/29/4 5/23/3 8/19/7 7/27/8
f 5/23/3 6/24/6 9/20/9 8/19/7
f 7/27/8 8/19/7 11/22/10 10/28/11
f 8/19/7 9/20/9 12/21/12 11/22/10
f 10/28/11 11/22/10 14/26/13 13/30/14
f 11/22/10 12/21/12 15/25/15 14/26/13
f 13/46/14 14/47/13 17/48/16 16/49/17
f 14/47/13 15/50/15 18/51/18 17/48/16
f 16/49/17 17/48/16 20/52/19 19/53/20
f 17/48/16 18/51/18 21/54/21 20/52/19
f 19/31/20 20/32/19 23/33/22 22/34/23
f 20/32/19 21/35/21 24/36/24 23/33/22
f 22/34/23 23/33/22 2/37/2 1/38/1
f 23/33/22 24/36/24 3/39/5 2/37/2
f 24/1/24 21/2/21 18/3/18 25/4/25
f 3/7/5 24/1/24 25/4/25 6/8/6
f 25/4/25 18/3/18 15/5/15 12/6/12
f 6/8/6 25/4/25 12/6/12 9/9/9
f 19/10/20 22/11/23 26/12/26 16/13/17
f 22/11/23 1/14/1 4/15/4 26/12/26
f 16/13/17 26/12/26 10/16/11 13/17/14
f 26/12/26 4/15/4 7/18/8 10/16/11
