# This file uses centimeters as units for non-parametric coordinates.

mtllib Telescope-Coll_Mount.mtl
v -0.252798 0.003486 0.252798
v 0.252798 0.003486 0.252798
v -0.238043 0.782994 0.252798
v 0.238043 0.953200 0.252798
v -0.238043 0.782994 -0.252798
v 0.238043 0.953200 -0.252798
v -0.252798 0.003486 -0.252798
v 0.252798 0.003486 -0.252798
v -0.433184 1.365454 0.122407
v -0.150951 1.505520 0.122407
v -0.150951 1.505520 -0.122407
v -0.433184 1.365454 -0.122407
vt 0.375000 0.000000
vt 0.625000 0.000000
vt 0.375000 0.250000
vt 0.625000 0.250000
vt 0.375000 0.500000
vt 0.625000 0.500000
vt 0.375000 0.750000
vt 0.625000 0.750000
vt 0.375000 1.000000
vt 0.625000 1.000000
vt 0.875000 0.000000
vt 0.875000 0.250000
vt 0.125000 0.000000
vt 0.125000 0.250000
vt 0.375000 0.250000
vt 0.625000 0.250000
vt 0.625000 0.500000
vt 0.375000 0.500000
vn 0.000000 0.000000 1.000000
vn 0.000000 0.000000 1.000000
vn -0.030344 0.074163 0.996784
vn -0.025569 0.062492 0.997718
vn -0.444543 0.895757 0.000000
vn -0.444543 0.895757 0.000000
vn -0.444543 0.895757 0.000000
vn -0.444543 0.895757 0.000000
vn -0.025569 0.062492 -0.997718
vn -0.030344 0.074163 -0.996784
vn 0.000000 0.000000 -1.000000
vn 0.000000 0.000000 -1.000000
vn 0.000000 -1.000000 0.000000
vn 0.000000 -1.000000 0.000000
vn 0.000000 -1.000000 0.000000
vn 0.000000 -1.000000 0.000000
vn 0.999879 0.015535 0.000000
vn 0.999879 0.015535 0.000000
vn 0.979646 0.200732 0.000000
vn 0.979646 0.200732 0.000000
vn -0.999821 0.018926 0.000000
vn -0.999821 0.018926 0.000000
vn -0.995426 -0.095538 0.000000
vn -0.995426 -0.095538 0.000000
vn -0.076086 0.185957 0.979608
vn -0.076086 0.185957 0.979607
vn 0.817580 0.575814 0.000000
vn 0.817580 0.575814 0.000000
vn -0.076086 0.185957 -0.979607
vn -0.076086 0.185957 -0.979608
vn -0.948200 -0.317674 0.000000
vn -0.948200 -0.317674 0.000000
usemtl initialShadingGroup
f 1/1/1 2/2/2 4/4/3 3/3/4
f 9/15/5 10/16/6 11/17/7 12/18/8
f 5/5/9 6/6/10 8/8/11 7/7/12
f 7/7/13 8/8/14 2/10/15 1/9/16
f 2/2/17 8/11/18 6/12/19 4/4/20
f 7/13/21 1/1/22 3/3/23 5/14/24
f 3/3/4 4/4/3 10/16/25 9/15/26
f 4/4/20 6/6/19 11/17/27 10/16/28
f 6/6/10 5/5/9 12/18/29 11/17/30
f 5/5/24 3/3/23 9/15/31 12/18/32
